<svg width="60" height="60" viewBox="0 0 60 60" fill="none" xmlns="http://www.w3.org/2000/svg">
<path d="M48.4752 38.8216C52.0279 38.8217 53.2926 35.9369 53.3352 33.9616L53.335 25.435C53.3207 21.8681 50.4501 20.6175 48.4747 20.5748L43.6288 20.5889L39.9481 16.9081C37.2479 14.208 34.2636 14.0658 31.8336 14.9042L19.2143 14.9039L13.5301 20.5881L11.5263 20.5738C7.9594 20.5879 6.70892 23.4585 6.66634 25.4338L6.66656 33.9604C6.6666 35.4951 7.20664 36.6036 7.98826 37.3852C8.99727 38.3942 10.4184 38.8206 11.5268 38.8206L19.2149 38.8066L24.3168 43.9085C26.7327 46.3244 29.4612 46.0403 31.3796 45.0029C33.4118 46.1825 35.515 45.8415 37.064 45.0031C39.8352 46.6374 42.7484 45.3727 44.2121 43.909L48.4752 39.6458L47.6368 38.8074L48.4752 38.8216ZM41.3698 41.0667C40.7303 41.7062 39.6787 42.2178 38.5276 41.0667L37.1065 39.6455L35.6854 41.0666C35.046 41.7061 33.9944 42.2176 32.8433 41.0665L31.4221 39.6454L30.0011 41.0664C29.3616 41.7059 28.31 42.2175 27.1589 41.0664L20.8917 34.7992L11.5693 34.7989C10.7167 34.7705 10.7025 34.2731 10.7025 33.9605L10.688 25.4766C10.7164 24.6239 11.2138 24.6097 11.5265 24.6097L15.2071 24.5956L20.8913 18.9114L26.5757 18.9115L24.3162 21.171C22.5967 22.8905 21.1899 26.5711 24.3164 29.6976C27.4429 32.824 31.1235 31.4173 32.843 29.6978L42.7909 39.6457L41.3698 41.0667ZM48.4751 34.7857L43.6292 34.7998L32.8428 24.0134L30.0007 26.8555C29.3612 27.495 28.3096 28.0066 27.1585 26.8554C26.0074 25.7043 26.519 24.6527 27.1584 24.0133L31.4216 19.7501C32.0753 19.0964 34.5053 17.1496 37.106 19.7503L41.952 24.5963L48.4322 24.5965C49.2849 24.6249 49.2991 25.1223 49.2991 25.4349L49.3135 33.9189C49.2851 34.7715 48.7878 34.7857 48.4751 34.7857Z" fill="#FEFEFE"/>
</svg>
