<svg width="42" height="30" viewBox="0 0 42 30" fill="none" xmlns="http://www.w3.org/2000/svg">
<path d="M21 0C22.6245 0 24.1824 0.762929 25.331 2.12095C26.4797 3.47897 27.125 5.32085 27.125 7.24138C27.125 9.16191 26.4797 11.0038 25.331 12.3618C24.1824 13.7198 22.6245 14.4828 21 14.4828C19.3755 14.4828 17.8176 13.7198 16.669 12.3618C15.5203 11.0038 14.875 9.16191 14.875 7.24138C14.875 5.32085 15.5203 3.47897 16.669 2.12095C17.8176 0.762929 19.3755 0 21 0ZM8.75 5.17241C9.73 5.17241 10.64 5.48276 11.4275 6.04138C11.165 9 11.9 11.9379 13.405 14.2345C12.53 16.2207 10.78 17.5862 8.75 17.5862C7.35761 17.5862 6.02226 16.9323 5.03769 15.7683C4.05312 14.6042 3.5 13.0255 3.5 11.3793C3.5 9.73314 4.05312 8.15439 5.03769 6.99037C6.02226 5.82635 7.35761 5.17241 8.75 5.17241ZM33.25 5.17241C34.6424 5.17241 35.9777 5.82635 36.9623 6.99037C37.9469 8.15439 38.5 9.73314 38.5 11.3793C38.5 13.0255 37.9469 14.6042 36.9623 15.7683C35.9777 16.9323 34.6424 17.5862 33.25 17.5862C31.22 17.5862 29.47 16.2207 28.595 14.2345C30.1 11.9379 30.835 9 30.5725 6.04138C31.36 5.48276 32.27 5.17241 33.25 5.17241ZM9.625 26.3793C9.625 22.0966 14.7175 18.6207 21 18.6207C27.2825 18.6207 32.375 22.0966 32.375 26.3793V30H9.625V26.3793ZM0 30V26.8966C0 24.0207 3.3075 21.6 7.7875 20.8966C6.755 22.3034 6.125 24.2483 6.125 26.3793V30H0ZM42 30H35.875V26.3793C35.875 24.2483 35.245 22.3034 34.2125 20.8966C38.6925 21.6 42 24.0207 42 26.8966V30Z" fill="#263246"/>
</svg>
