<svg width="42" height="42" viewBox="0 0 42 42" fill="none" xmlns="http://www.w3.org/2000/svg">
<path d="M21 0C18.2422 0 15.5115 0.543181 12.9636 1.59853C10.4158 2.65388 8.10079 4.20073 6.15076 6.15076C2.21249 10.089 0 15.4305 0 21C0 26.5695 2.21249 31.911 6.15076 35.8492C8.10079 37.7993 10.4158 39.3461 12.9636 40.4015C15.5115 41.4568 18.2422 42 21 42C26.5695 42 31.911 39.7875 35.8492 35.8492C39.7875 31.911 42 26.5695 42 21C42 18.564 41.559 16.149 40.719 13.881L37.359 17.241C37.653 18.48 37.8 19.74 37.8 21C37.8 25.4556 36.03 29.7288 32.8794 32.8794C29.7288 36.03 25.4556 37.8 21 37.8C16.5444 37.8 12.2712 36.03 9.12061 32.8794C5.97 29.7288 4.2 25.4556 4.2 21C4.2 16.5444 5.97 12.2712 9.12061 9.12061C12.2712 5.97 16.5444 4.2 21 4.2C22.26 4.2 23.52 4.347 24.759 4.641L28.14 1.26C25.851 0.441 23.436 0 21 0ZM35.7 0L27.3 8.4V11.55L21.945 16.905C21.63 16.8 21.315 16.8 21 16.8C19.8861 16.8 18.8178 17.2425 18.0302 18.0302C17.2425 18.8178 16.8 19.8861 16.8 21C16.8 22.1139 17.2425 23.1822 18.0302 23.9698C18.8178 24.7575 19.8861 25.2 21 25.2C22.1139 25.2 23.1822 24.7575 23.9698 23.9698C24.7575 23.1822 25.2 22.1139 25.2 21C25.2 20.685 25.2 20.37 25.095 20.055L30.45 14.7H33.6L42 6.3H35.7V0ZM21 8.4C17.6583 8.4 14.4534 9.7275 12.0905 12.0905C9.7275 14.4534 8.4 17.6583 8.4 21C8.4 24.3417 9.7275 27.5466 12.0905 29.9095C14.4534 32.2725 17.6583 33.6 21 33.6C24.3417 33.6 27.5466 32.2725 29.9095 29.9095C32.2725 27.5466 33.6 24.3417 33.6 21H29.4C29.4 23.2278 28.515 25.3644 26.9397 26.9397C25.3644 28.515 23.2278 29.4 21 29.4C18.7722 29.4 16.6356 28.515 15.0603 26.9397C13.485 25.3644 12.6 23.2278 12.6 21C12.6 18.7722 13.485 16.6356 15.0603 15.0603C16.6356 13.485 18.7722 12.6 21 12.6V8.4Z" fill="#263246"/>
</svg>
