<svg width="42" height="42" viewBox="0 0 42 42" fill="none" xmlns="http://www.w3.org/2000/svg">
<path d="M17.6842 17.6842C17.6842 16.4684 18.6789 15.4737 19.8947 15.4737C21.1105 15.4737 22.1053 16.4684 22.1053 17.6842V33.1579H17.6842V17.6842ZM37.5789 24.3158C36.3632 24.3158 35.3684 25.3105 35.3684 26.5263V37.5789H4.42105V6.63158H15.4737C16.6895 6.63158 17.6842 5.63684 17.6842 4.42105C17.6842 3.20526 16.6895 2.21053 15.4737 2.21053H4.42105C1.98947 2.21053 0 4.2 0 6.63158V37.5789C0 40.0105 1.98947 42 4.42105 42H35.3684C37.8 42 39.7895 40.0105 39.7895 37.5789V26.5263C39.7895 25.3105 38.7947 24.3158 37.5789 24.3158ZM39.7895 6.63158H35.3684V2.21053C35.3684 0.994737 34.3737 0 33.1579 0C31.9421 0 30.9474 0.994737 30.9474 2.21053V6.63158H26.5263C25.3105 6.63158 24.3158 7.62632 24.3158 8.8421C24.3158 10.0579 25.3105 11.0526 26.5263 11.0526H30.9474V15.4737C30.9474 16.6895 31.9421 17.6842 33.1579 17.6842C34.3737 17.6842 35.3684 16.6895 35.3684 15.4737V11.0526H39.7895C41.0053 11.0526 42 10.0579 42 8.8421C42 7.62632 41.0053 6.63158 39.7895 6.63158ZM28.7368 24.3158C27.5211 24.3158 26.5263 25.3105 26.5263 26.5263V33.1579H30.9474V26.5263C30.9474 25.3105 29.9526 24.3158 28.7368 24.3158ZM8.8421 22.1053V33.1579H13.2632V22.1053C13.2632 20.8895 12.2684 19.8947 11.0526 19.8947C9.83684 19.8947 8.8421 20.8895 8.8421 22.1053Z" fill="#263246"/>
</svg>
