<svg width="42" height="26" viewBox="0 0 42 26" fill="none" xmlns="http://www.w3.org/2000/svg">
<path d="M21 0C22.6245 0 24.1824 0.661205 25.331 1.83816C26.4797 3.01511 27.125 4.6114 27.125 6.27586C27.125 7.94032 26.4797 9.53661 25.331 10.7136C24.1824 11.8905 22.6245 12.5517 21 12.5517C19.3755 12.5517 17.8176 11.8905 16.669 10.7136C15.5203 9.53661 14.875 7.94032 14.875 6.27586C14.875 4.6114 15.5203 3.01511 16.669 1.83816C17.8176 0.661205 19.3755 0 21 0ZM8.75 4.48276C9.73 4.48276 10.64 4.75172 11.4275 5.23586C11.165 7.8 11.9 10.3462 13.405 12.3366C12.53 14.0579 10.78 15.2414 8.75 15.2414C7.35761 15.2414 6.02226 14.6746 5.03769 13.6658C4.05312 12.657 3.5 11.2888 3.5 9.86207C3.5 8.43539 4.05312 7.06714 5.03769 6.05832C6.02226 5.04951 7.35761 4.48276 8.75 4.48276ZM33.25 4.48276C34.6424 4.48276 35.9777 5.04951 36.9623 6.05832C37.9469 7.06714 38.5 8.43539 38.5 9.86207C38.5 11.2888 37.9469 12.657 36.9623 13.6658C35.9777 14.6746 34.6424 15.2414 33.25 15.2414C31.22 15.2414 29.47 14.0579 28.595 12.3366C30.1 10.3462 30.835 7.8 30.5725 5.23586C31.36 4.75172 32.27 4.48276 33.25 4.48276ZM9.625 22.8621C9.625 19.1503 14.7175 16.1379 21 16.1379C27.2825 16.1379 32.375 19.1503 32.375 22.8621V26H9.625V22.8621ZM0 26V23.3103C0 20.8179 3.3075 18.72 7.7875 18.1103C6.755 19.3297 6.125 21.0152 6.125 22.8621V26H0ZM42 26H35.875V22.8621C35.875 21.0152 35.245 19.3297 34.2125 18.1103C38.6925 18.72 42 20.8179 42 23.3103V26Z" fill="#FEFEFE"/>
</svg>
