<svg width="42" height="42" viewBox="0 0 42 42" fill="none" xmlns="http://www.w3.org/2000/svg">
<path d="M36.2727 19.0909H42V22.9091H36.2727V19.0909ZM0 19.0909H5.72727V22.9091H0V19.0909ZM22.9091 0V5.72727H19.0909V0H22.9091ZM7.48364 4.77273L11.55 8.85818L8.83909 11.55L4.77273 7.50273L7.48364 4.77273ZM30.45 8.83909L34.4973 4.77273L37.2273 7.50273L33.1609 11.55L30.45 8.83909ZM21 9.54545C24.0379 9.54545 26.9514 10.7523 29.0996 12.9004C31.2477 15.0486 32.4545 17.9621 32.4545 21C32.4545 25.2382 30.1445 28.9418 26.7273 30.9273V34.3636C26.7273 34.87 26.5261 35.3555 26.1681 35.7136C25.8101 36.0716 25.3245 36.2727 24.8182 36.2727H17.1818C16.6755 36.2727 16.1899 36.0716 15.8319 35.7136C15.4739 35.3555 15.2727 34.87 15.2727 34.3636V30.9273C11.8555 28.9418 9.54545 25.2382 9.54545 21C9.54545 17.9621 10.7523 15.0486 12.9004 12.9004C15.0486 10.7523 17.9621 9.54545 21 9.54545ZM24.8182 38.1818V40.0909C24.8182 40.5972 24.617 41.0828 24.259 41.4408C23.901 41.7989 23.4154 42 22.9091 42H19.0909C18.5846 42 18.099 41.7989 17.741 41.4408C17.383 41.0828 17.1818 40.5972 17.1818 40.0909V38.1818H24.8182ZM19.0909 32.4545H22.9091V28.3882C26.2118 27.5482 28.6364 24.5509 28.6364 21C28.6364 18.9747 27.8318 17.0324 26.3997 15.6003C24.9676 14.1682 23.0253 13.3636 21 13.3636C18.9747 13.3636 17.0324 14.1682 15.6003 15.6003C14.1682 17.0324 13.3636 18.9747 13.3636 21C13.3636 24.5509 15.7882 27.5482 19.0909 28.3882V32.4545Z" fill="#FEFEFE"/>
</svg>
